<?xml version="1.0" encoding="UTF-8"?> <svg xmlns="http://www.w3.org/2000/svg" viewBox="0 0 1225 226"><defs><style>.cls-1{fill:#afb0b0;}.cls-2{fill:#610e4e;}.cls-3{fill:#fff;}</style></defs><title>Asset 1</title><g id="Layer_2" data-name="Layer 2"><g id="Layer_1-2" data-name="Layer 1"><rect class="cls-1" width="1225" height="226"></rect><path class="cls-2" d="M171.16,42.88h50V194.71H190.67v-121h-.39l-28.1,121H134.86l-28.11-121h-.39v121H75.92V42.88h50l22.44,108.9h.39Z"></path><path class="cls-2" d="M364.56,118.8c0,38.25-19.33,78.25-62.65,78.25s-62.65-40-62.65-78.25,19.32-78.26,62.65-78.26S364.56,80.54,364.56,118.8Zm-94.07,0c0,19.51,5.27,54.25,31.42,54.25s31.42-34.74,31.42-54.25-5.27-54.26-31.42-54.26S270.49,99.28,270.49,118.8Z"></path><path class="cls-2" d="M482.82,68.64H443.4V194.71H413V68.64H373.53V42.88H482.82Z"></path><path class="cls-3" d="M498.73,42.53H529.9l41.48,115,42.78-115h29.23L581.92,194.71H558.49Z"></path><path class="cls-3" d="M651.56,119.27a88.18,88.18,0,0,1,6-33.21,74.5,74.5,0,0,1,16.66-25.47A73.13,73.13,0,0,1,699.6,44.36a89,89,0,0,1,32.34-5.7,90.6,90.6,0,0,1,32.68,5.27,71.49,71.49,0,0,1,25.57,16A73.94,73.94,0,0,1,807,85.31a87.31,87.31,0,0,1,6,33.1,84.49,84.49,0,0,1-6,32.45A74.27,74.27,0,0,1,790.19,176a76.45,76.45,0,0,1-25.57,16.45,90.46,90.46,0,0,1-32.68,6.12,89,89,0,0,1-32.34-5.69,72.49,72.49,0,0,1-42-41.17A84.49,84.49,0,0,1,651.56,119.27Zm28.37-1.72a65.38,65.38,0,0,0,3.76,22.57A53,53,0,0,0,694.33,158a49.35,49.35,0,0,0,16.44,11.82,51.57,51.57,0,0,0,21.39,4.3,52.24,52.24,0,0,0,21.49-4.3A49,49,0,0,0,770.2,158a52.84,52.84,0,0,0,10.64-17.84,65.38,65.38,0,0,0,3.77-22.57,59.31,59.31,0,0,0-3.77-21.28A52.48,52.48,0,0,0,770.2,79a48.46,48.46,0,0,0-16.55-11.61,53.53,53.53,0,0,0-21.49-4.19,52.84,52.84,0,0,0-21.39,4.19A48.8,48.8,0,0,0,694.33,79a52.65,52.65,0,0,0-10.64,17.3A59.31,59.31,0,0,0,679.93,117.55Z"></path><path class="cls-3" d="M838.12,42.53h27.09V194.71H838.12Z"></path><path class="cls-3" d="M1003,78.21q-8.38-9-16.23-12a43.75,43.75,0,0,0-15.8-3,52.84,52.84,0,0,0-21.39,4.19A48.7,48.7,0,0,0,933.13,79a52.65,52.65,0,0,0-10.64,17.3,59.31,59.31,0,0,0-3.76,21.28,65.38,65.38,0,0,0,3.76,22.57A53,53,0,0,0,933.13,158a49.25,49.25,0,0,0,16.44,11.82,51.57,51.57,0,0,0,21.39,4.3,39.3,39.3,0,0,0,17.95-4.41q8.7-4.39,16.23-14.08l22.35,15.91a60.8,60.8,0,0,1-25.15,20.63,78.38,78.38,0,0,1-31.6,6.45,89,89,0,0,1-32.34-5.69,72.49,72.49,0,0,1-42-41.17,84.49,84.49,0,0,1-6-32.45,88.18,88.18,0,0,1,6-33.21A74.5,74.5,0,0,1,913,60.59,73.13,73.13,0,0,1,938.4,44.36a89,89,0,0,1,32.34-5.7,74.08,74.08,0,0,1,28.7,5.49q13.21,5.48,24.61,18.59Z"></path><path class="cls-3" d="M1045.76,42.53h100.81V67h-73.73v37.4h69.86v24.5h-69.86v41.27h77.6v24.5H1045.76Z"></path></g></g></svg> 